# xmcd CD database file
#
# Track frame offsets:
#	150
#	30300
#	50255
#	64580
#	90723
#	122921
#	150424
#	172410
#	195810
#	223013
#	249116
#	270653
#
# Disc length: 4090 seconds
#
# Revision: 0
# Processed by: cddbd v1.5.1PL0 Copyright (c) Steve Scherf et al.
# Submitted via: CDex 1.51
#
DISCID=980ff80c
DTITLE=森里屋 - respect
DYEAR=1900
DGENRE=サウンドトラック (一般)
TTITLE0=Last Regrets
TTITLE1=The Four Elements[Ending]
TTITLE2=鳥の詩
TTITLE3=美しく生きたい -Raving Dreams-
TTITLE4=Last Regrets -Tk's Unclouded Mix-
TTITLE5=The Four Elements[Beginning]
TTITLE6=Bite On The Bullet
TTITLE7=Days Of Promise
TTITLE8=季節の雫 -Oxygen Remix-
TTITLE9=風の辿り着く場所 -Tk's Unclouded Mix-
TTITLE10=Last Regrets
TTITLE11=データトラック
EXTD=
EXTT0=
EXTT1=
EXTT2=
EXTT3=
EXTT4=
EXTT5=
EXTT6=
EXTT7=
EXTT8=
EXTT9=
EXTT10=
EXTT11=
PLAYORDER=
